<mxfile host="Electron" agent="Mozilla/5.0 (Windows NT 10.0; Win64; x64) AppleWebKit/537.36 (KHTML, like Gecko) draw.io/27.0.2 Chrome/134.0.6998.205 Electron/35.3.0 Safari/537.36" version="27.0.2">
  <diagram name="Схема интеграции" id="C64fve-Lw2I5wVxxuqOa">
    <mxGraphModel dx="1426" dy="849" grid="1" gridSize="10" guides="1" tooltips="1" connect="1" arrows="1" fold="1" page="1" pageScale="1" pageWidth="1169" pageHeight="827" math="0" shadow="0">
      <root>
        <mxCell id="0" />
        <mxCell id="1" parent="0" />
        <mxCell id="KwxqUgD4pvCNiWJ5DstC-68" style="edgeStyle=orthogonalEdgeStyle;rounded=0;orthogonalLoop=1;jettySize=auto;html=1;entryX=0.5;entryY=0;entryDx=0;entryDy=0;" edge="1" parent="1" source="KwxqUgD4pvCNiWJ5DstC-1" target="KwxqUgD4pvCNiWJ5DstC-5">
          <mxGeometry relative="1" as="geometry" />
        </mxCell>
        <mxCell id="KwxqUgD4pvCNiWJ5DstC-69" value="Подача заявки на депозит" style="edgeLabel;html=1;align=center;verticalAlign=middle;resizable=0;points=[];" vertex="1" connectable="0" parent="KwxqUgD4pvCNiWJ5DstC-68">
          <mxGeometry x="-0.3125" relative="1" as="geometry">
            <mxPoint x="30" as="offset" />
          </mxGeometry>
        </mxCell>
        <mxCell id="KwxqUgD4pvCNiWJ5DstC-1" value="Сайт" style="rounded=1;whiteSpace=wrap;html=1;fillColor=#dae8fc;strokeColor=#6c8ebf;" vertex="1" parent="1">
          <mxGeometry x="450" y="230" width="120" height="60" as="geometry" />
        </mxCell>
        <mxCell id="KwxqUgD4pvCNiWJ5DstC-2" style="edgeStyle=orthogonalEdgeStyle;rounded=0;orthogonalLoop=1;jettySize=auto;html=1;entryX=0.5;entryY=0;entryDx=0;entryDy=0;endArrow=open;endFill=0;" edge="1" parent="1" source="KwxqUgD4pvCNiWJ5DstC-4" target="KwxqUgD4pvCNiWJ5DstC-9">
          <mxGeometry relative="1" as="geometry" />
        </mxCell>
        <mxCell id="KwxqUgD4pvCNiWJ5DstC-3" value="Цифровые оповещения клиентов" style="edgeLabel;html=1;align=center;verticalAlign=middle;resizable=0;points=[];" connectable="0" vertex="1" parent="KwxqUgD4pvCNiWJ5DstC-2">
          <mxGeometry x="-0.1021" y="-2" relative="1" as="geometry">
            <mxPoint as="offset" />
          </mxGeometry>
        </mxCell>
        <mxCell id="KwxqUgD4pvCNiWJ5DstC-4" value="СМС-шлюз&lt;br&gt;телеком-оператора" style="rounded=1;whiteSpace=wrap;html=1;fillColor=#647687;strokeColor=#314354;fontColor=#ffffff;" vertex="1" parent="1">
          <mxGeometry x="515" y="484" width="120" height="60" as="geometry" />
        </mxCell>
        <mxCell id="KwxqUgD4pvCNiWJ5DstC-58" style="edgeStyle=orthogonalEdgeStyle;rounded=0;orthogonalLoop=1;jettySize=auto;html=1;entryX=1;entryY=1;entryDx=0;entryDy=0;endArrow=open;endFill=0;" edge="1" parent="1" source="KwxqUgD4pvCNiWJ5DstC-5" target="KwxqUgD4pvCNiWJ5DstC-53">
          <mxGeometry relative="1" as="geometry">
            <Array as="points">
              <mxPoint x="440" y="530" />
            </Array>
          </mxGeometry>
        </mxCell>
        <mxCell id="KwxqUgD4pvCNiWJ5DstC-59" value="Передача ставок&lt;div&gt;&amp;nbsp;(email)&lt;/div&gt;" style="edgeLabel;html=1;align=center;verticalAlign=middle;resizable=0;points=[];" vertex="1" connectable="0" parent="KwxqUgD4pvCNiWJ5DstC-58">
          <mxGeometry x="-0.8278" relative="1" as="geometry">
            <mxPoint as="offset" />
          </mxGeometry>
        </mxCell>
        <mxCell id="KwxqUgD4pvCNiWJ5DstC-5" value="АБС" style="rounded=1;whiteSpace=wrap;html=1;fillColor=#d5e8d4;strokeColor=#82b366;strokeWidth=2;" vertex="1" parent="1">
          <mxGeometry x="350" y="350" width="120" height="60" as="geometry" />
        </mxCell>
        <mxCell id="KwxqUgD4pvCNiWJ5DstC-6" value="Система партнёрского&lt;br&gt;кол-центра" style="rounded=1;whiteSpace=wrap;html=1;fillColor=#647687;strokeColor=#314354;fontColor=#ffffff;" vertex="1" parent="1">
          <mxGeometry x="820" y="230" width="120" height="60" as="geometry" />
        </mxCell>
        <mxCell id="KwxqUgD4pvCNiWJ5DstC-7" value="Система&lt;br&gt;кол-центра&lt;br&gt;подрядчика" style="rounded=1;whiteSpace=wrap;html=1;fillColor=#fff2cc;strokeColor=#d6b656;" vertex="1" parent="1">
          <mxGeometry x="670" y="230" width="120" height="60" as="geometry" />
        </mxCell>
        <mxCell id="KwxqUgD4pvCNiWJ5DstC-8" value="Интернет-банк" style="rounded=1;whiteSpace=wrap;html=1;fillColor=#dae8fc;strokeColor=#6c8ebf;" vertex="1" parent="1">
          <mxGeometry x="260" y="230" width="120" height="60" as="geometry" />
        </mxCell>
        <mxCell id="KwxqUgD4pvCNiWJ5DstC-9" value="Телеком-оператор" style="rounded=1;whiteSpace=wrap;html=1;fillColor=#647687;strokeColor=#314354;fontColor=#ffffff;" vertex="1" parent="1">
          <mxGeometry x="515" y="624" width="120" height="60" as="geometry" />
        </mxCell>
        <mxCell id="KwxqUgD4pvCNiWJ5DstC-51" style="edgeStyle=orthogonalEdgeStyle;rounded=0;orthogonalLoop=1;jettySize=auto;html=1;endArrow=open;endFill=0;entryX=0.25;entryY=0;entryDx=0;entryDy=0;" edge="1" parent="1" source="KwxqUgD4pvCNiWJ5DstC-10" target="KwxqUgD4pvCNiWJ5DstC-50">
          <mxGeometry relative="1" as="geometry">
            <Array as="points">
              <mxPoint x="110" y="190" />
            </Array>
          </mxGeometry>
        </mxCell>
        <mxCell id="KwxqUgD4pvCNiWJ5DstC-70" value="&lt;div&gt;Работа с личными&lt;/div&gt;&lt;div&gt;обращениями&lt;/div&gt;" style="edgeLabel;html=1;align=center;verticalAlign=middle;resizable=0;points=[];" vertex="1" connectable="0" parent="KwxqUgD4pvCNiWJ5DstC-51">
          <mxGeometry x="0.1714" y="-1" relative="1" as="geometry">
            <mxPoint x="1" y="8" as="offset" />
          </mxGeometry>
        </mxCell>
        <mxCell id="KwxqUgD4pvCNiWJ5DstC-10" value="Сотрудники&lt;br&gt;отделения банка&lt;br&gt;(фронт-офис)" style="shape=umlActor;verticalLabelPosition=bottom;verticalAlign=top;html=1;outlineConnect=0;fontStyle=1" vertex="1" parent="1">
          <mxGeometry x="95" y="150" width="30" height="60" as="geometry" />
        </mxCell>
        <mxCell id="KwxqUgD4pvCNiWJ5DstC-54" style="edgeStyle=orthogonalEdgeStyle;rounded=0;orthogonalLoop=1;jettySize=auto;html=1;entryX=0.5;entryY=1;entryDx=0;entryDy=0;endArrow=open;endFill=0;" edge="1" parent="1" source="KwxqUgD4pvCNiWJ5DstC-11" target="KwxqUgD4pvCNiWJ5DstC-53">
          <mxGeometry relative="1" as="geometry" />
        </mxCell>
        <mxCell id="KwxqUgD4pvCNiWJ5DstC-55" value="Получение и обработка&lt;div&gt;заявок из call-центра&lt;/div&gt;" style="edgeLabel;html=1;align=center;verticalAlign=middle;resizable=0;points=[];" vertex="1" connectable="0" parent="KwxqUgD4pvCNiWJ5DstC-54">
          <mxGeometry x="0.0143" relative="1" as="geometry">
            <mxPoint as="offset" />
          </mxGeometry>
        </mxCell>
        <mxCell id="KwxqUgD4pvCNiWJ5DstC-11" value="Менеджеры бек-офиса" style="shape=umlActor;verticalLabelPosition=bottom;verticalAlign=top;html=1;outlineConnect=0;fontStyle=1" vertex="1" parent="1">
          <mxGeometry x="125" y="670" width="30" height="60" as="geometry" />
        </mxCell>
        <mxCell id="KwxqUgD4pvCNiWJ5DstC-12" value="Операторы кол-центра&lt;br&gt;партнёра" style="shape=umlActor;verticalLabelPosition=bottom;verticalAlign=top;html=1;outlineConnect=0;fontStyle=1" vertex="1" parent="1">
          <mxGeometry x="865" y="450" width="30" height="60" as="geometry" />
        </mxCell>
        <mxCell id="KwxqUgD4pvCNiWJ5DstC-13" value="Операторы&amp;nbsp;&lt;div&gt;кол-центра&lt;br&gt;&lt;/div&gt;" style="shape=umlActor;verticalLabelPosition=bottom;verticalAlign=top;html=1;outlineConnect=0;fontStyle=1" vertex="1" parent="1">
          <mxGeometry x="715" y="450" width="30" height="60" as="geometry" />
        </mxCell>
        <mxCell id="KwxqUgD4pvCNiWJ5DstC-14" value="Клиент банка" style="shape=umlActor;verticalLabelPosition=bottom;verticalAlign=top;html=1;outlineConnect=0;fontStyle=1" vertex="1" parent="1">
          <mxGeometry x="560" y="50" width="30" height="60" as="geometry" />
        </mxCell>
        <mxCell id="KwxqUgD4pvCNiWJ5DstC-15" style="edgeStyle=orthogonalEdgeStyle;rounded=0;orthogonalLoop=1;jettySize=auto;html=1;entryX=0.5;entryY=0;entryDx=0;entryDy=0;endArrow=open;endFill=0;" edge="1" parent="1" target="KwxqUgD4pvCNiWJ5DstC-7">
          <mxGeometry relative="1" as="geometry">
            <mxPoint x="610" y="100" as="sourcePoint" />
            <mxPoint x="800" y="230" as="targetPoint" />
          </mxGeometry>
        </mxCell>
        <mxCell id="KwxqUgD4pvCNiWJ5DstC-17" style="edgeStyle=orthogonalEdgeStyle;rounded=0;orthogonalLoop=1;jettySize=auto;html=1;entryX=0.5;entryY=0;entryDx=0;entryDy=0;endArrow=open;endFill=0;" edge="1" parent="1" target="KwxqUgD4pvCNiWJ5DstC-6">
          <mxGeometry relative="1" as="geometry">
            <mxPoint x="610" y="90" as="sourcePoint" />
            <mxPoint x="740" y="240" as="targetPoint" />
          </mxGeometry>
        </mxCell>
        <mxCell id="KwxqUgD4pvCNiWJ5DstC-19" style="edgeStyle=orthogonalEdgeStyle;rounded=0;orthogonalLoop=1;jettySize=auto;html=1;entryX=0.5;entryY=0;entryDx=0;entryDy=0;endArrow=open;endFill=0;" edge="1" parent="1" target="KwxqUgD4pvCNiWJ5DstC-8">
          <mxGeometry relative="1" as="geometry">
            <mxPoint x="540" y="90" as="sourcePoint" />
            <mxPoint x="634" y="270" as="targetPoint" />
          </mxGeometry>
        </mxCell>
        <mxCell id="KwxqUgD4pvCNiWJ5DstC-21" style="edgeStyle=orthogonalEdgeStyle;rounded=0;orthogonalLoop=1;jettySize=auto;html=1;entryX=0.5;entryY=1;entryDx=0;entryDy=0;endArrow=open;endFill=0;exitX=0.5;exitY=0;exitDx=0;exitDy=0;exitPerimeter=0;" edge="1" parent="1" target="KwxqUgD4pvCNiWJ5DstC-6" source="KwxqUgD4pvCNiWJ5DstC-12">
          <mxGeometry relative="1" as="geometry">
            <mxPoint x="990" y="360" as="sourcePoint" />
            <mxPoint x="900" y="560" as="targetPoint" />
          </mxGeometry>
        </mxCell>
        <mxCell id="KwxqUgD4pvCNiWJ5DstC-64" value="Создание&amp;nbsp;&lt;div&gt;обращений&lt;/div&gt;" style="edgeLabel;html=1;align=center;verticalAlign=middle;resizable=0;points=[];" vertex="1" connectable="0" parent="KwxqUgD4pvCNiWJ5DstC-21">
          <mxGeometry x="-0.075" y="-1" relative="1" as="geometry">
            <mxPoint x="-1" y="34" as="offset" />
          </mxGeometry>
        </mxCell>
        <mxCell id="KwxqUgD4pvCNiWJ5DstC-23" style="edgeStyle=orthogonalEdgeStyle;rounded=0;orthogonalLoop=1;jettySize=auto;html=1;entryX=0.5;entryY=1;entryDx=0;entryDy=0;endArrow=open;endFill=0;" edge="1" parent="1" source="KwxqUgD4pvCNiWJ5DstC-13">
          <mxGeometry relative="1" as="geometry">
            <mxPoint x="840" y="360" as="sourcePoint" />
            <mxPoint x="730" y="290" as="targetPoint" />
          </mxGeometry>
        </mxCell>
        <mxCell id="KwxqUgD4pvCNiWJ5DstC-67" value="Создание&amp;nbsp;&lt;div&gt;обращений&lt;/div&gt;" style="edgeLabel;html=1;align=center;verticalAlign=middle;resizable=0;points=[];" vertex="1" connectable="0" parent="KwxqUgD4pvCNiWJ5DstC-23">
          <mxGeometry x="0.3707" relative="1" as="geometry">
            <mxPoint y="74" as="offset" />
          </mxGeometry>
        </mxCell>
        <mxCell id="KwxqUgD4pvCNiWJ5DstC-25" value="" style="edgeStyle=orthogonalEdgeStyle;rounded=0;orthogonalLoop=1;jettySize=auto;html=1;entryX=0.5;entryY=0;entryDx=0;entryDy=0;endArrow=open;endFill=0;exitX=0.5;exitY=1;exitDx=0;exitDy=0;" edge="1" parent="1" source="KwxqUgD4pvCNiWJ5DstC-8" target="KwxqUgD4pvCNiWJ5DstC-5">
          <mxGeometry relative="1" as="geometry">
            <mxPoint x="610" y="140" as="sourcePoint" />
            <mxPoint x="740" y="240" as="targetPoint" />
          </mxGeometry>
        </mxCell>
        <mxCell id="KwxqUgD4pvCNiWJ5DstC-26" value="Открытие депозитов и&lt;div&gt;&amp;nbsp;накопительных счетов&lt;/div&gt;" style="edgeLabel;html=1;align=center;verticalAlign=middle;resizable=0;points=[];" connectable="0" vertex="1" parent="KwxqUgD4pvCNiWJ5DstC-25">
          <mxGeometry x="-0.1021" y="-2" relative="1" as="geometry">
            <mxPoint x="-47" y="-2" as="offset" />
          </mxGeometry>
        </mxCell>
        <mxCell id="KwxqUgD4pvCNiWJ5DstC-27" value="" style="edgeStyle=orthogonalEdgeStyle;rounded=0;orthogonalLoop=1;jettySize=auto;html=1;entryX=0;entryY=0.5;entryDx=0;entryDy=0;endArrow=open;endFill=0;exitX=1;exitY=0.5;exitDx=0;exitDy=0;" edge="1" parent="1" target="KwxqUgD4pvCNiWJ5DstC-5" source="KwxqUgD4pvCNiWJ5DstC-50">
          <mxGeometry relative="1" as="geometry">
            <mxPoint x="210" y="380" as="sourcePoint" />
            <mxPoint x="420" y="360" as="targetPoint" />
          </mxGeometry>
        </mxCell>
        <mxCell id="KwxqUgD4pvCNiWJ5DstC-28" value="Получение&lt;div&gt;данных для расчетов&lt;/div&gt;&lt;div&gt;Создание депозита&lt;/div&gt;&lt;div&gt;Загрузка документов&lt;/div&gt;" style="edgeLabel;html=1;align=center;verticalAlign=middle;resizable=0;points=[];" connectable="0" vertex="1" parent="KwxqUgD4pvCNiWJ5DstC-27">
          <mxGeometry x="-0.1021" y="-2" relative="1" as="geometry">
            <mxPoint x="2" y="-12" as="offset" />
          </mxGeometry>
        </mxCell>
        <mxCell id="KwxqUgD4pvCNiWJ5DstC-29" value="" style="edgeStyle=orthogonalEdgeStyle;rounded=0;orthogonalLoop=1;jettySize=auto;html=1;endArrow=none;endFill=0;startArrow=open;startFill=0;exitX=0.75;exitY=0;exitDx=0;exitDy=0;entryX=0;entryY=0.3333333333333333;entryDx=0;entryDy=0;entryPerimeter=0;" edge="1" parent="1" source="KwxqUgD4pvCNiWJ5DstC-50" target="KwxqUgD4pvCNiWJ5DstC-14">
          <mxGeometry relative="1" as="geometry">
            <mxPoint x="185" y="320" as="sourcePoint" />
            <mxPoint x="540" y="70" as="targetPoint" />
            <Array as="points">
              <mxPoint x="170" y="70" />
            </Array>
          </mxGeometry>
        </mxCell>
        <mxCell id="KwxqUgD4pvCNiWJ5DstC-30" value="Личное обращение&lt;div&gt;&amp;nbsp;в отделение&lt;/div&gt;" style="edgeLabel;html=1;align=center;verticalAlign=middle;resizable=0;points=[];" connectable="0" vertex="1" parent="KwxqUgD4pvCNiWJ5DstC-29">
          <mxGeometry x="-0.1021" y="-2" relative="1" as="geometry">
            <mxPoint x="-5" y="-2" as="offset" />
          </mxGeometry>
        </mxCell>
        <mxCell id="KwxqUgD4pvCNiWJ5DstC-31" value="" style="edgeStyle=orthogonalEdgeStyle;rounded=0;orthogonalLoop=1;jettySize=auto;html=1;entryX=0.5;entryY=0;entryDx=0;entryDy=0;endArrow=open;endFill=0;exitX=1;exitY=0.75;exitDx=0;exitDy=0;" edge="1" parent="1" source="KwxqUgD4pvCNiWJ5DstC-5" target="KwxqUgD4pvCNiWJ5DstC-4">
          <mxGeometry relative="1" as="geometry">
            <mxPoint x="510" y="453.57" as="sourcePoint" />
            <mxPoint x="650" y="453.57" as="targetPoint" />
          </mxGeometry>
        </mxCell>
        <mxCell id="KwxqUgD4pvCNiWJ5DstC-32" value="Отправка&lt;br&gt;смс-оповещений" style="edgeLabel;html=1;align=center;verticalAlign=middle;resizable=0;points=[];" connectable="0" vertex="1" parent="KwxqUgD4pvCNiWJ5DstC-31">
          <mxGeometry x="-0.1021" y="-2" relative="1" as="geometry">
            <mxPoint x="18" y="43" as="offset" />
          </mxGeometry>
        </mxCell>
        <mxCell id="KwxqUgD4pvCNiWJ5DstC-33" value="" style="edgeStyle=orthogonalEdgeStyle;rounded=0;orthogonalLoop=1;jettySize=auto;html=1;entryX=1;entryY=0.25;entryDx=0;entryDy=0;endArrow=open;endFill=0;exitX=0.25;exitY=1;exitDx=0;exitDy=0;" edge="1" parent="1" source="KwxqUgD4pvCNiWJ5DstC-7" target="KwxqUgD4pvCNiWJ5DstC-5">
          <mxGeometry relative="1" as="geometry">
            <mxPoint x="420" y="300" as="sourcePoint" />
            <mxPoint x="420" y="360" as="targetPoint" />
          </mxGeometry>
        </mxCell>
        <mxCell id="KwxqUgD4pvCNiWJ5DstC-34" value="Передача обращений" style="edgeLabel;html=1;align=center;verticalAlign=middle;resizable=0;points=[];" connectable="0" vertex="1" parent="KwxqUgD4pvCNiWJ5DstC-33">
          <mxGeometry x="-0.1021" y="-2" relative="1" as="geometry">
            <mxPoint x="2" y="3" as="offset" />
          </mxGeometry>
        </mxCell>
        <mxCell id="KwxqUgD4pvCNiWJ5DstC-35" style="edgeStyle=orthogonalEdgeStyle;rounded=0;orthogonalLoop=1;jettySize=auto;html=1;entryX=0.5;entryY=0;entryDx=0;entryDy=0;endArrow=open;endFill=0;" edge="1" parent="1" target="KwxqUgD4pvCNiWJ5DstC-1">
          <mxGeometry relative="1" as="geometry">
            <mxPoint x="570" y="140" as="sourcePoint" />
            <mxPoint x="740" y="240" as="targetPoint" />
          </mxGeometry>
        </mxCell>
        <mxCell id="KwxqUgD4pvCNiWJ5DstC-37" value="" style="edgeStyle=orthogonalEdgeStyle;rounded=0;orthogonalLoop=1;jettySize=auto;html=1;entryX=1;entryY=0.5;entryDx=0;entryDy=0;endArrow=open;endFill=0;exitX=0.25;exitY=1;exitDx=0;exitDy=0;jumpStyle=arc;" edge="1" parent="1" source="KwxqUgD4pvCNiWJ5DstC-6" target="KwxqUgD4pvCNiWJ5DstC-5">
          <mxGeometry relative="1" as="geometry">
            <mxPoint x="810" y="380" as="sourcePoint" />
            <mxPoint x="580" y="455" as="targetPoint" />
          </mxGeometry>
        </mxCell>
        <mxCell id="KwxqUgD4pvCNiWJ5DstC-38" value="Передача обращений" style="edgeLabel;html=1;align=center;verticalAlign=middle;resizable=0;points=[];" connectable="0" vertex="1" parent="KwxqUgD4pvCNiWJ5DstC-37">
          <mxGeometry x="-0.1021" y="-2" relative="1" as="geometry">
            <mxPoint x="-89" y="2" as="offset" />
          </mxGeometry>
        </mxCell>
        <mxCell id="KwxqUgD4pvCNiWJ5DstC-39" value="" style="edgeStyle=orthogonalEdgeStyle;rounded=0;orthogonalLoop=1;jettySize=auto;html=1;entryX=0.25;entryY=1;entryDx=0;entryDy=0;endArrow=open;endFill=0;exitX=1;exitY=0.25;exitDx=0;exitDy=0;" edge="1" parent="1" target="KwxqUgD4pvCNiWJ5DstC-5" source="KwxqUgD4pvCNiWJ5DstC-53">
          <mxGeometry relative="1" as="geometry">
            <mxPoint x="210" y="500" as="sourcePoint" />
            <mxPoint x="360" y="390" as="targetPoint" />
          </mxGeometry>
        </mxCell>
        <mxCell id="KwxqUgD4pvCNiWJ5DstC-40" value="Получение заявок&lt;div&gt;Создание оповещений&lt;/div&gt;&lt;div&gt;Запрос специальных ставок&lt;/div&gt;" style="edgeLabel;html=1;align=center;verticalAlign=middle;resizable=0;points=[];" connectable="0" vertex="1" parent="KwxqUgD4pvCNiWJ5DstC-39">
          <mxGeometry x="-0.1021" y="-2" relative="1" as="geometry">
            <mxPoint x="-24" y="-3" as="offset" />
          </mxGeometry>
        </mxCell>
        <mxCell id="KwxqUgD4pvCNiWJ5DstC-56" style="edgeStyle=orthogonalEdgeStyle;rounded=0;orthogonalLoop=1;jettySize=auto;html=1;entryX=0.5;entryY=0;entryDx=0;entryDy=0;startArrow=open;startFill=0;endArrow=open;endFill=0;" edge="1" parent="1" source="KwxqUgD4pvCNiWJ5DstC-50" target="KwxqUgD4pvCNiWJ5DstC-53">
          <mxGeometry relative="1" as="geometry" />
        </mxCell>
        <mxCell id="KwxqUgD4pvCNiWJ5DstC-57" value="Определение ставки&lt;div&gt;депозита (email)&lt;/div&gt;" style="edgeLabel;html=1;align=center;verticalAlign=middle;resizable=0;points=[];" vertex="1" connectable="0" parent="KwxqUgD4pvCNiWJ5DstC-56">
          <mxGeometry x="-0.1667" y="-1" relative="1" as="geometry">
            <mxPoint as="offset" />
          </mxGeometry>
        </mxCell>
        <mxCell id="KwxqUgD4pvCNiWJ5DstC-50" value="Фронт-офис" style="rounded=1;whiteSpace=wrap;html=1;fillColor=#ffe6cc;strokeColor=#d79b00;" vertex="1" parent="1">
          <mxGeometry x="80" y="350" width="120" height="60" as="geometry" />
        </mxCell>
        <mxCell id="KwxqUgD4pvCNiWJ5DstC-53" value="Бек-офис" style="rounded=1;whiteSpace=wrap;html=1;fillColor=#ffe6cc;strokeColor=#d79b00;" vertex="1" parent="1">
          <mxGeometry x="80" y="470" width="120" height="60" as="geometry" />
        </mxCell>
      </root>
    </mxGraphModel>
  </diagram>
</mxfile>
